{
	"scenes":[{
		"nodes":[0]
	}],
	"asset":{
		"version":"2.0",
		"generator":"Created using the official Cinema 4D glTF Exporter 1.000x284978"
	},
	"nodes":[{
		"name":"Torus",
		"mesh":0,
		"translation":[0.0,
		0.0,
		0.0],
		"rotation":[-0.2084747701883316,
		0.11931190639734268,
		-0.34638869762420657,
		-0.9068174362182617],
		"scale":[1.0,
		1.0,
		1.0]
	}],
	"meshes":[{
		"name":"Torus",
		"primitives":[{
			"attributes":{
				"POSITION":1,
				"NORMAL":2,
				"TEXCOORD_0":3
			},
			"indices":0,
			"material":0
		}]
	}],
	"accessors":[{
		"bufferView":0,
		"count":60000,
		"type":"SCALAR",
		"componentType":5123,
		"byteOffset":0,
		"min":[0],
		"max":[10200]
	},
	{
		"bufferView":1,
		"count":10201,
		"type":"VEC3",
		"componentType":5126,
		"byteOffset":0,
		"min":[-617.9164428710938,
		-14.0,
		-617.9164428710938],
		"max":[617.9164428710938,
		14.0,
		617.9164428710938]
	},
	{
		"bufferView":1,
		"count":10201,
		"type":"VEC3",
		"componentType":5126,
		"byteOffset":12,
		"min":[-1.0,
		-1.0,
		-1.0],
		"max":[1.0,
		1.0,
		1.0]
	},
	{
		"bufferView":1,
		"count":10201,
		"type":"VEC2",
		"componentType":5126,
		"byteOffset":24,
		"min":[0.0,
		0.0],
		"max":[1.0,
		1.0]
	}],
	"bufferViews":[{
		"buffer":0,
		"byteOffset":0,
		"byteLength":120000,
		"target":34963
	},
	{
		"buffer":0,
		"byteOffset":120000,
		"byteLength":326432,
		"target":34962,
		"byteStride":32
	}],
	"buffers":[{
		"uri":"data:application/octet-stream;base64,",
		"byteLength":446432
	}],
	"materials":[{
		"name":"",
		"pbrMetallicRoughness":{
			"baseColorFactor":[1.0,
			1.0,
			1.0,
			1.0],
			"metallicFactor":1.0,
			"roughnessFactor":1.0
		},
		"emissiveFactor":[0.0,
		0.0,
		0.0],
		"alphaMode":"OPAQUE",
		"doubleSided":false
	}]
}